<svg xmlns="http://www.w3.org/2000/svg" viewBox="0 0 32 32" width="32" height="32">
  <!-- Background circle -->
  <circle cx="16" cy="16" r="15" fill="#667eea" stroke="#764ba2" stroke-width="2"/>
  
  <!-- Brain outline -->
  <path d="M8 12c0-2 1.5-3.5 3.5-3.5s3.5 1.5 3.5 3.5c0 1.5-1 2.5-2 3 1 0.5 2 1.5 2 3 0 2-1.5 3.5-3.5 3.5S8 20 8 18c0-1.5 1-2.5 2-3-1-0.5-2-1.5-2-3z" fill="none" stroke="white" stroke-width="1.5"/>
  
  <!-- Brain details -->
  <path d="M10 12c0-1 0.5-1.5 1.5-1.5s1.5 0.5 1.5 1.5c0 0.5-0.5 1-1 1.5 0.5 0.5 1 1 1 1.5 0 1-0.5 1.5-1.5 1.5S10 16 10 15c0-0.5 0.5-1 1-1.5-0.5-0.5-1-1-1-1.5z" fill="white"/>
  
  <!-- Hallucination indicators (sparkles) -->
  <circle cx="22" cy="8" r="1" fill="#ffd700"/>
  <circle cx="24" cy="12" r="0.8" fill="#ffd700"/>
  <circle cx="20" cy="6" r="0.6" fill="#ffd700"/>
  <circle cx="26" cy="10" r="0.7" fill="#ffd700"/>
  
  <!-- Detection waves -->
  <circle cx="16" cy="16" r="8" fill="none" stroke="rgba(255,255,255,0.3)" stroke-width="1" stroke-dasharray="2,2"/>
  <circle cx="16" cy="16" r="12" fill="none" stroke="rgba(255,255,255,0.2)" stroke-width="1" stroke-dasharray="3,3"/>
</svg>
